#!OML:ASF F:\VICON\USERDATA\INSTALL\rory3\rory3.ASF
:FULLY-SPECIFIED
:DEGREES
1150
root 14.0526 17.8173 -6.64295 536.669 -41.3944 -173.832
lowerback 12.6609 4.05164 -0.225679
upperback 2.5954 5.01299 -2.04389
thorax -4.18112 2.37832 -2.80025
lowerneck -14.2481 8.94651 -9.92004
upperneck 46.8643 11.7113 3.88788
head 19.6907 1.96896 5.43227
rclavicle 1.39149e-015 7.95139e-015
rhumerus -24.2055 -4.66702 -83.0269
rradius 44.9418
rwrist 0.610596
rhand -16.0596 8.4675
rfingers 7.12502
rthumb 10.1427 -21.268
lclavicle 1.39149e-015 7.95139e-015
lhumerus -36.2734 10.7589 70.7594
lradius 35.495
lwrist -5.74238
lhand -19.9734 27.516
lfingers 7.12502
lthumb 6.36552 57.4003
rfemur -21.6051 5.61279 13.7257
rtibia 37.254
rfoot -14.5823 0.166648
rtoes -10.2446
lfemur -7.30868 -10.6384 -23.0911
ltibia 26.6225
lfoot -13.4764 -16.7061
ltoes 16.3055
1151
root 14.0451 17.8346 -6.56692 536.631 -40.4475 -174.187
lowerback 12.8215 4.16867 -0.218898
upperback 2.66501 5.14587 -2.18564
thorax -4.17619 2.43785 -2.98155
lowerneck -14.0858 8.95331 -9.83186
upperneck 46.9067 11.5555 4.00432
head 19.6792 1.9248 5.43517
rclavicle 6.7388e-014 -7.95139e-015
rhumerus -24.5337 -5.2245 -83.0484
rradius 44.5593
rwrist 1.04947
rhand -15.8238 8.65131
rfingers 7.12502
rthumb 10.3702 -21.073
lclavicle 6.7388e-014 -7.95139e-015
lhumerus -36.276 10.6871 70.3674
lradius 36.2224
lwrist -5.40291
lhand -20.1213 27.5216
lfingers 7.12502
lthumb 6.22275 57.4102
rfemur -21.493 4.72469 13.8987
rtibia 38.8117
rfoot -15.2234 -1.13217
rtoes -14.8721
lfemur -6.78231 -10.2575 -23.5967
ltibia 25.9814
lfoot -13.0947 -16.0063
ltoes 16.2598
1152
root 14.0366 17.8597 -6.49584 536.621 -39.4237 -174.374
lowerback 12.9404 4.46163 0.0968229
upperback 2.44498 5.55784 -2.49483
thorax -4.39118 2.63364 -3.56673
lowerneck -13.1957 8.88921 -9.24138
upperneck 46.9082 10.9533 4.09001
head 19.5286 1.79641 5.21153
rclavicle -1.04958e-013 6.52014e-014
rhumerus -25.5716 -6.27061 -83.0862
rradius 44.3971
rwrist 1.47572
rhand -15.6704 8.54596
rfingers 7.12502
rthumb 10.5181 -21.1709
lclavicle -1.04958e-013 6.52014e-014
lhumerus -36.4531 9.7014 69.9503
lradius 36.9477
lwrist -4.69006
lhand -20.4214 28.0431
lfingers 7.12502
lthumb 5.93295 57.94
rfemur -21.5553 3.97187 14.192
rtibia 40.3505
rfoot -14.8045 -2.06682
rtoes -12.3186
lfemur -6.40787 -9.79647 -23.9128
ltibia 25.3122
lfoot -12.4618 -15.3511
ltoes 17.1124
1153
root 14.0323 17.8664 -6.42321 536.939 -38.5261 -174.844
lowerback 12.871 4.55173 -0.0744755
upperback 2.40174 5.64378 -2.62733
thorax -4.39687 2.67583 -3.61997
lowerneck -13.1449 8.91341 -9.39542
upperneck 47.0222 10.8999 4.25991
head 19.5593 1.74445 5.30791
rclavicle 2.56432e-014 -5.56597e-014
rhumerus -26.0073 -6.35237 -83.0831
rradius 44.1512
rwrist 1.71698
rhand -15.5819 8.25202
rfingers 7.12502
rthumb 10.6035 -21.4605
lclavicle 2.56432e-014 -5.56597e-014
lhumerus -36.5144 9.63451 69.6693
lradius 37.6371
lwrist -3.85775
lhand -20.8928 27.94
lfingers 7.12502
lthumb 5.47784 57.8492
rfemur -21.7756 3.23235 14.1648
rtibia 41.8849
rfoot -14.547 -3.11018
rtoes -11.0666
lfemur -6.24519 -9.48547 -24.4383
ltibia 24.653
lfoot -11.8494 -14.6764
ltoes 17.939
1154
root 14.0297 17.8669 -6.34807 537.157 -37.7186 -175.179
lowerback 12.685 4.56687 -0.174525
upperback 2.45935 5.64686 -2.68459
thorax -4.23831 2.67935 -3.60421
lowerneck -13.2469 8.93262 -9.75302
upperneck 47.0538 10.9203 4.52157
head 19.538 1.7146 5.5004
rclavicle 1.31794e-013 -6.83819e-014
rhumerus -26.1374 -6.28561 -83.0869
rradius 43.6892
rwrist 1.85322
rhand -15.6616 8.24794
rfingers 7.12502
rthumb 10.5266 -21.4685
lclavicle 1.31794e-013 -6.83819e-014
lhumerus -36.4525 9.92725 69.3871
lradius 38.2813
lwrist -3.21514
lhand -21.2009 27.8212
lfingers 7.12502
lthumb 5.18041 57.7379
rfemur -21.8986 2.54103 14.2007
rtibia 43.402
rfoot -14.3776 -4.13849
rtoes -8.70354
lfemur -6.13769 -9.18995 -24.8539
ltibia 24.0823
lfoot -11.5254 -14.0492
ltoes 17.9971
1155
root 14.0237 17.8757 -6.28249 537.258 -36.7489 -175.458
lowerback 12.4915 4.64419 -0.299436
upperback 2.53146 5.72789 -2.74432
thorax -4.05841 2.72094 -3.58738
lowerneck -13.2562 8.96352 -9.80768
upperneck 47.0445 10.9244 4.58555
head 19.518 1.70667 5.53604
rclavicle 4.03533e-014 -6.67916e-014
rhumerus -26.2659 -6.23174 -83.1795
rradius 43.1717
rwrist 1.87502
rhand -15.7886 8.24164
rfingers 7.12502
rthumb 10.4041 -21.481
lclavicle 4.03533e-014 -6.67916e-014
lhumerus -36.3123 10.2166 69.0808
lradius 38.7906
lwrist -2.50615
lhand -21.4092 28.1393
lfingers 7.12502
lthumb 4.97926 58.0608
rfemur -21.9088 1.90459 14.3375
rtibia 44.9099
rfoot -14.1754 -5.00362
rtoes -6.87333
lfemur -5.96112 -8.5985 -25.1958
ltibia 23.6156
lfoot -11.4701 -13.5638
ltoes 17.6324
